<svg width="36" height="36" viewBox="0 0 36 36" fill="none" xmlns="http://www.w3.org/2000/svg">
<path d="M17.9967 2.63678C13.8252 2.63678 13.3021 2.65446 11.6638 2.72921C10.0289 2.80384 8.91232 3.06346 7.93526 3.44319C6.9252 3.83572 6.06862 4.36093 5.21471 5.21483C4.36081 6.06874 3.8356 6.92533 3.44307 7.93538C3.06334 8.91238 2.80372 10.029 2.72909 11.6638C2.65434 13.3021 2.63672 13.8252 2.63672 17.9968C2.63672 22.1682 2.65434 22.6913 2.72909 24.3296C2.80372 25.9645 3.06334 27.0811 3.44307 28.0581C3.8356 29.0681 4.36081 29.9247 5.21471 30.7787C6.06862 31.6326 6.9252 32.1578 7.93526 32.5503C8.91232 32.93 10.0289 33.1897 11.6638 33.2642C13.3021 33.339 13.8252 33.3567 17.9967 33.3567C22.1682 33.3567 22.6912 33.339 24.3296 33.2642C25.9644 33.1897 27.081 32.93 28.058 32.5503C29.0681 32.1578 29.9247 31.6326 30.7786 30.7787C31.6325 29.9247 32.1577 29.0681 32.5503 28.0581C32.9299 27.0811 33.1896 25.9645 33.2642 24.3296C33.3389 22.6913 33.3566 22.1682 33.3566 17.9968C33.3566 13.8252 33.3389 13.3021 33.2642 11.6638C33.1896 10.029 32.9299 8.91238 32.5503 7.93538C32.1577 6.92533 31.6325 6.06874 30.7786 5.21483C29.9247 4.36093 29.0681 3.83572 28.058 3.44319C27.081 3.06346 25.9644 2.80384 24.3296 2.72921C22.6912 2.65446 22.1682 2.63678 17.9967 2.63678ZM17.9967 5.40439C22.0979 5.40439 22.5838 5.42 24.2034 5.4939C25.701 5.56225 26.5143 5.81248 27.0555 6.02277C27.7725 6.30141 28.2842 6.63431 28.8216 7.17177C29.3591 7.70924 29.692 8.22097 29.9706 8.93787C30.181 9.47911 30.4312 10.2924 30.4995 11.79C30.5734 13.4096 30.5891 13.8955 30.5891 17.9968C30.5891 22.098 30.5734 22.5838 30.4995 24.2035C30.4312 25.701 30.181 26.5143 29.9706 27.0556C29.692 27.7725 29.3591 28.2842 28.8216 28.8217C28.2842 29.3592 27.7725 29.692 27.0555 29.9707C26.5143 30.181 25.701 30.4313 24.2034 30.4996C22.584 30.5735 22.0982 30.5891 17.9967 30.5891C13.8951 30.5891 13.4094 30.5735 11.7899 30.4996C10.2923 30.4313 9.47905 30.181 8.93781 29.9707C8.22085 29.692 7.70917 29.3592 7.17165 28.8217C6.63419 28.2842 6.30128 27.7725 6.0227 27.0556C5.81235 26.5143 5.56213 25.701 5.49378 24.2035C5.41988 22.5838 5.40427 22.098 5.40427 17.9968C5.40427 13.8955 5.41988 13.4096 5.49378 11.79C5.56213 10.2924 5.81235 9.47911 6.0227 8.93787C6.30128 8.22097 6.63419 7.70924 7.17165 7.17177C7.70917 6.63431 8.22085 6.30141 8.93781 6.02277C9.47905 5.81248 10.2923 5.56225 11.7899 5.4939C13.4096 5.42 13.8954 5.40439 17.9967 5.40439Z" fill="#A5A5A5"/>
<path d="M18.0126 23.1151C15.1848 23.1151 12.8926 20.8228 12.8926 17.9951C12.8926 15.1674 15.1848 12.8751 18.0126 12.8751C20.8402 12.8751 23.1325 15.1674 23.1325 17.9951C23.1325 20.8228 20.8402 23.1151 18.0126 23.1151ZM18.0126 10.1075C13.6563 10.1075 10.125 13.6389 10.125 17.9951C10.125 22.3513 13.6563 25.8826 18.0126 25.8826C22.3687 25.8826 25.9001 22.3513 25.9001 17.9951C25.9001 13.6389 22.3687 10.1075 18.0126 10.1075Z" fill="#A5A5A5"/>
<path d="M28.0497 9.80587C28.0497 10.8239 27.2244 11.649 26.2064 11.649C25.1885 11.649 24.3633 10.8239 24.3633 9.80587C24.3633 8.78789 25.1885 7.96271 26.2064 7.96271C27.2244 7.96271 28.0497 8.78789 28.0497 9.80587Z" fill="#A5A5A5"/>
</svg>
