<svg width="36" height="36" viewBox="0 0 36 36" fill="none" xmlns="http://www.w3.org/2000/svg">
<g clip-path="url(#clip0)">
<path d="M33.2741 -0.0880737C34.7422 -0.0880737 35.9379 1.0744 35.9379 2.50829V33.3228C35.9379 34.7567 34.7422 35.9211 33.2741 35.9211H2.5856C1.12036 35.9211 -0.0703125 34.7567 -0.0703125 33.3228V2.50829C-0.0703125 1.0744 1.12036 -0.0880737 2.5856 -0.0880737H33.2741ZM30.6143 30.5955V21.1713C30.6143 16.5432 29.615 12.985 24.2074 12.985C21.609 12.985 19.8664 14.4097 19.1543 15.7606H19.0811V13.4114H13.9616V30.5955H19.2959V22.0963C19.2959 19.8545 19.72 17.6826 22.4989 17.6826C25.2398 17.6826 25.274 20.2462 25.274 22.239V30.5955H30.6143ZM10.6111 13.4114H5.265V30.5955H10.6111V13.4114ZM7.93948 4.86924C6.2242 4.86924 4.84109 6.25686 4.84109 7.96629C4.84109 9.67615 6.2242 11.0637 7.93948 11.0637C9.648 11.0637 11.0351 9.67615 11.0351 7.96629C11.0351 6.25686 9.648 4.86924 7.93948 4.86924Z" fill="#A5A5A5"/>
</g>
<defs>
<clipPath id="clip0">
<rect width="36" height="36" fill="white"/>
</clipPath>
</defs>
</svg>
