<svg width="36" height="36" viewBox="0 0 36 36" fill="none" xmlns="http://www.w3.org/2000/svg">
<path d="M11.3213 32.6268C24.9062 32.6268 32.3366 21.3718 32.3366 11.6115C32.3366 11.2918 32.3367 10.9736 32.3151 10.6568C33.7605 9.61116 35.0084 8.31663 36 6.8336C34.652 7.43091 33.222 7.82255 31.7578 7.99566C33.2993 7.07288 34.4538 5.62036 35.0049 3.91036C33.5552 4.77063 31.9688 5.37701 30.3149 5.70319C28.9183 4.21812 26.9679 3.375 24.9294 3.375C20.8737 3.375 17.5364 6.71231 17.5364 10.7679C17.5364 11.3306 17.6007 11.8915 17.7278 12.4395C11.7922 12.142 6.25423 9.33441 2.50559 4.72254C0.556242 8.07827 1.56487 12.4271 4.79229 14.5822C3.61702 14.5474 2.46698 14.2303 1.44 13.6577V13.7513C1.44098 17.2538 3.93237 20.2982 7.36559 20.9917C6.27827 21.2882 5.13717 21.3315 4.03059 21.1184C4.99577 24.1197 7.77902 26.1885 10.9311 26.2477C8.31614 28.3027 5.08409 29.419 1.75823 29.4157C1.17056 29.4145 0.583453 29.379 0 29.3091C3.37739 31.4764 7.30828 32.6264 11.3213 32.6211" fill="#A5A5A5"/>
</svg>
