<svg width="36" height="36" viewBox="0 0 36 36" fill="none" xmlns="http://www.w3.org/2000/svg">
<path d="M35.2479 9.33165C34.8339 7.78266 33.6142 6.56295 32.0652 6.14895C29.2575 5.39661 18 5.39661 18 5.39661C18 5.39661 6.74248 5.39661 3.93476 6.14895C2.38605 6.56295 1.16606 7.78266 0.752133 9.33165C0 12.1391 0 17.9968 0 17.9968C0 17.9968 0 23.8544 0.752133 26.6616C1.16606 28.2106 2.38605 29.4306 3.93476 29.8445C6.74248 30.5966 18 30.5966 18 30.5966C18 30.5966 29.2575 30.5966 32.0652 29.8445C33.6142 29.4306 34.8339 28.2106 35.2479 26.6616C35.9999 23.8544 35.9999 17.9968 35.9999 17.9968C35.9999 17.9968 35.9999 12.1391 35.2479 9.33165ZM14.3998 23.3969V12.5967L23.7527 17.9968L14.3998 23.3969Z" fill="#A5A5A5"/>
</svg>
